<mxfile host="app.diagrams.net" modified="2021-03-10T06:09:17.480Z" agent="5.0 (Windows NT 10.0; Win64; x64) AppleWebKit/537.36 (KHTML, like Gecko) Chrome/88.0.4324.190 Safari/537.36" etag="fMecc5NJVB9b_qirkSDZ" version="14.4.5" type="github">
  <diagram id="C5RBs43oDa-KdzZeNtuy" name="Page-1">
    <mxGraphModel dx="1185" dy="635" grid="1" gridSize="10" guides="1" tooltips="1" connect="1" arrows="1" fold="1" page="1" pageScale="1" pageWidth="827" pageHeight="1169" math="0" shadow="0">
      <root>
        <mxCell id="WIyWlLk6GJQsqaUBKTNV-0" />
        <mxCell id="WIyWlLk6GJQsqaUBKTNV-1" parent="WIyWlLk6GJQsqaUBKTNV-0" />
        <mxCell id="vwyfUSv_sKUjz9Wu5lah-2" style="edgeStyle=orthogonalEdgeStyle;orthogonalLoop=1;jettySize=auto;html=1;rounded=0;shadow=0;strokeWidth=1;labelBackgroundColor=none;endFill=0;endArrow=block;endSize=8;" edge="1" parent="WIyWlLk6GJQsqaUBKTNV-1" source="vwyfUSv_sKUjz9Wu5lah-0">
          <mxGeometry relative="1" as="geometry">
            <mxPoint x="250" y="600" as="targetPoint" />
          </mxGeometry>
        </mxCell>
        <mxCell id="vwyfUSv_sKUjz9Wu5lah-0" value="&lt;font style=&quot;font-size: 14px&quot;&gt;策划&lt;/font&gt;" style="rounded=1;whiteSpace=wrap;html=1;fontSize=12;glass=0;strokeWidth=1;shadow=0;" vertex="1" parent="WIyWlLk6GJQsqaUBKTNV-1">
          <mxGeometry x="100" y="580" width="60" height="40" as="geometry" />
        </mxCell>
        <mxCell id="vwyfUSv_sKUjz9Wu5lah-10" value="提出需求" style="text;html=1;strokeColor=none;fillColor=none;align=center;verticalAlign=middle;whiteSpace=wrap;rounded=0;" vertex="1" parent="WIyWlLk6GJQsqaUBKTNV-1">
          <mxGeometry x="170" y="580" width="70" height="20" as="geometry" />
        </mxCell>
      </root>
    </mxGraphModel>
  </diagram>
</mxfile>
